<svg width="1306" height="12" viewBox="0 0 1306 12" fill="none" xmlns="http://www.w3.org/2000/svg">
<path d="M0.666667 6C0.666667 8.94552 3.05448 11.3333 6 11.3333C8.94552 11.3333 11.3333 8.94552 11.3333 6C11.3333 3.05448 8.94552 0.666667 6 0.666667C3.05448 0.666667 0.666667 3.05448 0.666667 6ZM1294.68 6C1294.68 8.94552 1297.07 11.3333 1300.01 11.3333C1302.96 11.3333 1305.35 8.94552 1305.35 6C1305.35 3.05448 1302.96 0.666667 1300.01 0.666667C1297.07 0.666667 1294.68 3.05448 1294.68 6ZM6 7L1300.01 7V5L6 5V7Z" fill="#8C8C8C"/>
</svg>
